<svg width="210" height="91" viewBox="0 0 210 91" xmlns="http://www.w3.org/2000/svg"><title>Exploring St.Gallen</title><path d="M13.458 33.552c-2.048-.192-3.12-1.168-3.216-2.928V18.096h3.408c.928.032 1.736.184 2.424.456s1.192.592 1.512.96c.32.368.584.736.792 1.104.208.368.328.664.36.888l.048.384h2.016v-9.936h-2.016c0 .096-.016.232-.048.408-.032.176-.16.48-.384.912a4.35 4.35 0 0 1-.864 1.152c-.352.336-.896.64-1.632.912-.736.272-1.6.408-2.592.408h-3.024V2.4h5.376a5.113 5.113 0 0 1 2.256.696c.672.4 1.184.88 1.536 1.44.352.56.64 1.112.864 1.656.224.544.368 1.008.432 1.392l.096.528h2.016V0H.834v2.256c.864 0 1.616.28 2.256.84.64.56.96 1.272.96 2.136V30.48c0 .224-.008.416-.024.576-.016.16-.056.368-.12.624a2.11 2.11 0 0 1-.312.696 3.187 3.187 0 0 1-.552.6c-.224.192-.528.36-.912.504a4.54 4.54 0 0 1-1.296.264V36h22.56l.816-8.352h-2.016c-.032.16-.072.368-.12.624s-.192.712-.432 1.368a8.51 8.51 0 0 1-.864 1.752c-.336.512-.84.984-1.512 1.416a4.782 4.782 0 0 1-2.256.744h-3.552zm33.292-1.776c.8 1.184 1.84 1.84 3.12 1.968V36H38.926v-2.256c.768-.096 1.216-.376 1.344-.84.128-.464.064-.84-.192-1.128l-2.784-4.512-3.312 4.512c-.288.256-.368.624-.24 1.104.128.48.592.768 1.392.864V36H27.31v-2.256c.832-.128 1.456-.344 1.872-.648.416-.304.816-.744 1.2-1.32l5.28-7.152-5.184-8.4c-.736-1.184-1.776-1.84-3.12-1.968V12H38.35v2.256c-.832.096-1.312.376-1.44.84-.128.464-.048.84.24 1.128l2.16 3.504 2.592-3.504c.288-.288.376-.664.264-1.128-.112-.464-.568-.744-1.368-.84V12h7.776v2.256c-.576.096-1.072.248-1.488.456-.416.208-.712.408-.888.6a9.13 9.13 0 0 0-.696.912l-4.56 6.144 5.808 9.408zm20.62-20.208c2.88 0 5.208 1.224 6.984 3.672 1.776 2.448 2.664 5.48 2.664 9.096 0 3.552-.864 6.568-2.592 9.048-1.728 2.48-3.904 3.72-6.528 3.72-2.912 0-5.088-1.024-6.528-3.072V48h-5.712V17.28c0-.864-.296-1.568-.888-2.112-.592-.544-1.368-.848-2.328-.912V12h8.256l.432 2.688c1.408-2.08 3.488-3.12 6.24-3.12zm-.912 22.608c1.632 0 2.792-.832 3.48-2.496.688-1.664 1.032-4.112 1.032-7.344 0-3.264-.344-5.704-1.032-7.32-.688-1.616-1.848-2.424-3.48-2.424-1.792 0-3.088.816-3.888 2.448-.8 1.632-1.2 4.064-1.2 7.296 0 6.56 1.696 9.84 5.088 9.84zm23.548-4.08V0h-8.928v2.256c2.144.224 3.216 1.216 3.216 2.976v24.864c0 2.336-1.072 3.552-3.216 3.648V36h12.144v-2.256c-2.144-.096-3.216-1.312-3.216-3.648zM118.21 24c0 3.616-.936 6.616-2.808 9-1.872 2.384-4.456 3.576-7.752 3.576-3.296 0-5.88-1.192-7.752-3.576-1.872-2.384-2.808-5.384-2.808-9 0-3.616.936-6.624 2.808-9.024 1.872-2.4 4.456-3.6 7.752-3.6 3.296 0 5.88 1.2 7.752 3.6 1.872 2.4 2.808 5.408 2.808 9.024zm-6.048 0c0-3.328-.344-5.816-1.032-7.464-.688-1.648-1.848-2.472-3.48-2.472s-2.792.824-3.48 2.472c-.688 1.648-1.032 4.136-1.032 7.464 0 3.328.344 5.808 1.032 7.44.688 1.632 1.848 2.448 3.48 2.448s2.792-.816 3.48-2.448c.688-1.632 1.032-4.112 1.032-7.44zm24.892-12.672c1.312 0 2.368.4 3.168 1.2l-2.64 4.704c-1.76-1.12-3.264-1.192-4.512-.216-1.248.976-1.872 2.744-1.872 5.304v8.016c0 .992.272 1.792.816 2.4.544.608 1.344.944 2.4 1.008V36H122.27v-2.256c1.056-.064 1.856-.4 2.4-1.008.544-.608.816-1.408.816-2.4V17.664c0-.992-.272-1.792-.816-2.4-.544-.608-1.344-.944-2.4-1.008V12h7.776l.672 4.56c.448-1.568 1.312-2.832 2.592-3.792s2.528-1.44 3.744-1.44zm10.3-4.176c-.992 0-1.832-.344-2.52-1.032-.688-.688-1.032-1.528-1.032-2.52s.344-1.84 1.032-2.544C145.522.352 146.362 0 147.354 0s1.84.352 2.544 1.056a3.468 3.468 0 0 1 1.056 2.544c0 .992-.352 1.832-1.056 2.52-.704.688-1.552 1.032-2.544 1.032zm3.312 23.184c0 .992.272 1.792.816 2.4.544.608 1.344.944 2.4 1.008V36h-12.144v-2.256c1.056-.064 1.856-.4 2.4-1.008.544-.608.816-1.408.816-2.4V17.664c0-.992-.272-1.792-.816-2.4-.544-.608-1.344-.944-2.4-1.008V12h8.928v18.336zm27.916 0c0 .992.272 1.792.816 2.4.544.608 1.344.944 2.4 1.008V36H157.51v-2.256c1.056-.064 1.856-.4 2.4-1.008.544-.608.816-1.408.816-2.4V17.28c0-.864-.296-1.568-.888-2.112-.592-.544-1.368-.848-2.328-.912V12h8.112l.336 2.4c.576-.896 1.36-1.624 2.352-2.184a6.434 6.434 0 0 1 3.216-.84c2.816 0 4.696.664 5.64 1.992.944 1.328 1.416 3.448 1.416 6.36v10.608zM172.87 19.92c0-1.952-.28-3.272-.84-3.96-.56-.688-1.32-1.032-2.28-1.032-2.208 0-3.312 1.744-3.312 5.232v10.176c0 .992.272 1.808.816 2.448.544.64 1.344.96 2.4.96 1.056 0 1.856-.32 2.4-.96.544-.64.816-1.456.816-2.448V19.92zM201.41 12h8.304v2.256a6.634 6.634 0 0 0-1.056.168c-.32.08-.584.192-.792.336-.208.144-.4.28-.576.408a1.311 1.311 0 0 0-.408.48l-.24.48a1.43 1.43 0 0 0-.12.528 7.708 7.708 0 0 0-.024.48v20.016c0 2.72-.816 4.968-2.448 6.744-1.632 1.776-4.016 2.664-7.152 2.664-2.432 0-4.464-.656-6.096-1.968-1.632-1.312-2.464-3.072-2.496-5.28 0-.96.232-1.816.696-2.568.464-.752 1.096-1.24 1.896-1.464-1.696-1.024-3-2.536-3.912-4.536-.912-2-1.368-4.248-1.368-6.744 0-3.584.912-6.584 2.736-9 1.824-2.416 4.272-3.624 7.344-3.624 2.112 0 3.84.784 5.184 2.352L201.41 12zm-5.232 2.064c-1.632 0-2.792.824-3.48 2.472-.688 1.648-1.032 4.136-1.032 7.464 0 3.328.344 5.808 1.032 7.44.688 1.632 1.848 2.448 3.48 2.448 1.472 0 2.672-.872 3.6-2.616.928-1.744 1.392-4.168 1.392-7.272s-.464-5.536-1.392-7.296c-.928-1.76-2.128-2.64-3.6-2.64zm.432 29.76c1.248 0 2.256-.432 3.024-1.296.768-.864 1.152-2.048 1.152-3.552v-4.608c-1.376 1.472-3.072 2.208-5.088 2.208-.512 0-.896-.016-1.152-.048.224.512.336 1.152.336 1.92 0 .8-.248 1.464-.744 1.992a3.474 3.474 0 0 1-1.8 1.032c.224.736.728 1.312 1.512 1.728.784.416 1.704.624 2.76.624zM30.384 54H28.32c0 .896-.336 1.344-1.008 1.344-.16 0-.944-.328-2.352-.984a10.337 10.337 0 0 0-4.416-.984c-2.72 0-4.984.816-6.792 2.448-1.808 1.632-2.712 3.744-2.712 6.336 0 2.848 1.328 5.36 3.984 7.536l8.16 6.672c2.112 1.728 3.168 3.696 3.168 5.904 0 1.408-.472 2.592-1.416 3.552s-2.168 1.44-3.672 1.44a8.745 8.745 0 0 1-1.752-.192c-.624-.128-1.32-.368-2.088-.72a8.331 8.331 0 0 1-2.112-1.392c-.64-.576-1.208-1.352-1.704-2.328-.496-.976-.808-2.104-.936-3.384h-2.496V90h2.16l.096-.24c.064-.16.144-.336.24-.528s.256-.36.48-.504c.224-.144.496-.216.816-.216.352 0 .872.168 1.56.504.688.336 1.592.68 2.712 1.032s2.384.528 3.792.528c3.2 0 5.76-.912 7.68-2.736 1.92-1.824 2.88-4.144 2.88-6.96 0-3.36-1.536-6.272-4.608-8.736l-9.312-7.392c-1.504-1.216-2.256-2.512-2.256-3.888 0-1.216.544-2.256 1.632-3.12 1.088-.864 2.384-1.296 3.888-1.296 1.824 0 3.344.624 4.56 1.872 1.216 1.248 1.824 2.544 1.824 3.888h2.064V54zm14.208 30.096v-15.12h2.304V66h-2.304V54h-3.264c0 3.52-.816 5.872-2.448 7.056V66h-2.4v2.976h2.4v15.84c0 .096-.008.248-.024.456a1.606 1.606 0 0 1-.12.528 12.51 12.51 0 0 1-.24.504c-.096.192-.232.36-.408.504-.176.144-.368.28-.576.408-.208.128-.472.24-.792.336-.32.096-.672.16-1.056.192V90h12.144v-2.256a5.652 5.652 0 0 1-1.368-.24c-.4-.128-.712-.296-.936-.504a4.604 4.604 0 0 1-.552-.6 1.606 1.606 0 0 1-.288-.696c-.048-.272-.08-.48-.096-.624a3.408 3.408 0 0 1 0-.576c.016-.24.024-.376.024-.408zm7.584 3.312c0-.896.304-1.648.912-2.256.608-.608 1.36-.912 2.256-.912.896 0 1.648.304 2.256.912.608.608.912 1.36.912 2.256 0 .896-.304 1.648-.912 2.256-.608.608-1.36.912-2.256.912-.896 0-1.648-.304-2.256-.912-.608-.608-.912-1.36-.912-2.256zm28.848-12.912v2.256c2.336.224 3.568 1.36 3.696 3.408v1.92c-.064 1.664-.72 3.008-1.968 4.032s-2.608 1.536-4.08 1.536c-2.784 0-4.936-1.472-6.456-4.416-1.52-2.944-2.28-6.672-2.28-11.184s.76-8.248 2.28-11.208c1.52-2.96 3.672-4.44 6.456-4.44 1.6 0 3.2.672 4.8 2.016 1.6 1.344 2.4 3.232 2.4 5.664h2.496V54h-2.112c-.32.896-.832 1.2-1.536.912-2.496-.992-4.752-1.488-6.768-1.488-4.32 0-7.84 1.8-10.56 5.4-2.72 3.6-4.08 8.008-4.08 13.224 0 5.088 1.424 9.448 4.272 13.08 2.848 3.632 6.288 5.448 10.32 5.448 1.728 0 3.128-.168 4.2-.504 1.072-.336 2.184-.872 3.336-1.608.64-.416 1.128-.648 1.464-.696.336-.048.712.12 1.128.504L89.28 90h1.632v-9.984c0-.224.008-.416.024-.576.016-.16.056-.368.12-.624a2.11 2.11 0 0 1 .312-.696c.144-.208.328-.408.552-.6.224-.192.528-.36.912-.504a4.54 4.54 0 0 1 1.296-.264v-2.256H81.024zm35.136 9.6c0 2.048 1.072 3.264 3.216 3.648V90h-7.488l-.672-2.4c-1.248 1.984-3.216 2.976-5.904 2.976-2.592 0-4.624-.752-6.096-2.256-1.472-1.504-2.208-3.312-2.208-5.424 0-2.816 1.104-5.088 3.312-6.816-.928-.864-1.392-2.112-1.392-3.744 0-1.984.736-3.64 2.208-4.968 1.472-1.328 3.536-1.992 6.192-1.992 2.688 0 4.832.68 6.432 2.04 1.6 1.36 2.4 3.144 2.4 5.352v11.328zm-5.712-7.44v-3.84c0-2.976-1.232-4.464-3.696-4.464-1.056 0-1.984.232-2.784.696-.8.464-1.296 1.112-1.488 1.944 1.056.096 1.872.528 2.448 1.296.576.768.752 1.568.528 2.4 2.208.096 3.872.752 4.992 1.968zM106.56 86.88c1.088 0 2.008-.392 2.76-1.176.752-.784 1.128-1.864 1.128-3.24 0-1.376-.384-2.424-1.152-3.144-.768-.72-1.728-1.08-2.88-1.08-1.088 0-2.016.344-2.784 1.032-.768.688-1.152 1.736-1.152 3.144 0 1.504.416 2.624 1.248 3.36.832.736 1.776 1.104 2.832 1.104zm24.24-2.784V54h-8.928v2.256c2.144.224 3.216 1.216 3.216 2.976v24.864c0 2.336-1.072 3.552-3.216 3.648V90h12.144v-2.256c-2.144-.096-3.216-1.312-3.216-3.648zm14.832 0V54h-8.928v2.256c2.144.224 3.216 1.216 3.216 2.976v24.864c0 2.336-1.072 3.552-3.216 3.648V90h12.144v-2.256c-2.144-.096-3.216-1.312-3.216-3.648zm27.36 1.392c-1.056 1.568-2.456 2.808-4.2 3.72a11.797 11.797 0 0 1-5.544 1.368c-3.296 0-5.992-1.256-8.088-3.768-2.096-2.512-3.144-5.592-3.144-9.24 0-3.488.992-6.392 2.976-8.712 1.984-2.32 4.672-3.48 8.064-3.48 3.616 0 6.328 1.344 8.136 4.032 1.808 2.688 2.52 6.144 2.136 10.368h-15.264c.128 2.464.744 4.328 1.848 5.592 1.104 1.264 2.504 1.896 4.2 1.896 1.248 0 2.472-.344 3.672-1.032a7.301 7.301 0 0 0 2.808-2.856l2.4 2.112zm-10.128-17.28c-1.408 0-2.544.728-3.408 2.184-.864 1.456-1.328 3.592-1.392 6.408h9.552c-.032-2.752-.472-4.872-1.32-6.36-.848-1.488-1.992-2.232-3.432-2.232zm34.368 16.128c0 .992.272 1.792.816 2.4.544.608 1.344.944 2.4 1.008V90H176.16v-2.256c1.056-.064 1.856-.4 2.4-1.008.544-.608.816-1.408.816-2.4V71.28c0-.864-.296-1.568-.888-2.112-.592-.544-1.368-.848-2.328-.912V66h8.112l.336 2.4c.576-.896 1.36-1.624 2.352-2.184a6.434 6.434 0 0 1 3.216-.84c2.816 0 4.696.664 5.64 1.992.944 1.328 1.416 3.448 1.416 6.36v10.608zM191.52 73.92c0-1.952-.28-3.272-.84-3.96-.56-.688-1.32-1.032-2.28-1.032-2.208 0-3.312 1.744-3.312 5.232v10.176c0 .992.272 1.808.816 2.448.544.64 1.344.96 2.4.96 1.056 0 1.856-.32 2.4-.96.544-.64.816-1.456.816-2.448V73.92z" fill="#FFF" fill-rule="evenodd"/></svg>