<?xml version="1.0" encoding="UTF-8"?>
<svg width="24px" height="21px" viewBox="0 0 24 21" version="1.1" xmlns="http://www.w3.org/2000/svg" xmlns:xlink="http://www.w3.org/1999/xlink">
    <!-- Generator: Sketch 45.2 (43514) - http://www.bohemiancoding.com/sketch -->
    <title></title>
    <desc>Created with Sketch.</desc>
    <defs></defs>
    <g id="Page-1" stroke="none" stroke-width="1" fill="none" fill-rule="evenodd">
        <g id="Einzelansicht-Copy" transform="translate(-330.000000, -314.000000)" fill="#E0C348">
            <path d="M352.285741,320.267865 C352.285741,316.504467 349.741095,315.714288 347.598235,315.714288 C345.602697,315.714288 343.352694,317.87054 342.656265,318.700898 C342.334836,319.089292 341.665192,319.089292 341.343764,318.700898 C340.647334,317.87054 338.397331,315.714288 336.401793,315.714288 C334.258934,315.714288 331.714288,316.504467 331.714288,320.267865 C331.714288,322.71876 334.191969,324.995549 334.218755,325.022335 L342.000014,332.522344 L349.767881,325.035727 C349.808059,324.995549 352.285741,322.71876 352.285741,320.267865 Z M354.000029,320.267865 C354.000029,323.482154 351.053597,326.174122 350.933061,326.294658 L342.589301,334.330381 C342.428586,334.491096 342.2143,334.571453 342.000014,334.571453 C341.785728,334.571453 341.571442,334.491096 341.410728,334.330381 L333.053575,326.267872 C332.946432,326.174122 330,323.482154 330,320.267865 C330,316.343753 332.397324,314 336.401793,314 C338.745546,314 340.941977,315.848216 342.000014,316.892861 C343.058051,315.848216 345.254482,314 347.598235,314 C351.602704,314 354.000029,316.343753 354.000029,320.267865 Z" id=""></path>
        </g>
    </g>
</svg>