<svg width="24" height="21" viewBox="0 0 24 21" xmlns="http://www.w3.org/2000/svg"><title></title><path d="M22.286 6.268c0-3.764-2.545-4.554-4.688-4.554-1.995 0-4.245 2.157-4.942 2.987-.321.388-.99.388-1.312 0-.697-.83-2.947-2.987-4.942-2.987-2.143 0-4.688.79-4.688 4.554 0 2.45 2.478 4.728 2.505 4.754l7.781 7.5 7.768-7.486c.04-.04 2.518-2.317 2.518-4.768zm1.714 0c0 3.214-2.946 5.906-3.067 6.027L12.59 20.33a.831.831 0 0 1-.589.241.831.831 0 0 1-.59-.24l-8.356-8.063C2.946 12.174 0 9.482 0 6.268 0 2.344 2.397 0 6.402 0 8.746 0 10.942 1.848 12 2.893 13.058 1.848 15.254 0 17.598 0 21.603 0 24 2.344 24 6.268z" fill="#E0C348" fill-rule="evenodd"/></svg>