<svg width="17" height="15" viewBox="0 0 17 15" xmlns="http://www.w3.org/2000/svg"><title></title><path d="M16.697.093c.14.1.232.264.232.438V12.17a.522.522 0 0 1-.331.488l-5.29 2.116a.475.475 0 0 1-.397 0L5.819 12.74.727 14.773a.429.429 0 0 1-.198.042.548.548 0 0 1-.298-.091.544.544 0 0 1-.231-.438V2.647c0-.215.132-.413.33-.488L5.62.043a.475.475 0 0 1 .398 0l5.091 2.034L16.201.043a.53.53 0 0 1 .496.05zM6.084 1.209v10.498l4.76 1.9V3.11l-4.76-1.901zM1.058 3.003V13.5l4.497-1.793V1.209L1.058 3.003zm14.813 8.811V1.316L11.374 3.11v10.498l4.497-1.794z" fill="#FFF" fill-rule="evenodd"/></svg>