<?xml version="1.0" encoding="UTF-8"?>
<svg width="17px" height="15px" viewBox="0 0 17 15" version="1.1" xmlns="http://www.w3.org/2000/svg" xmlns:xlink="http://www.w3.org/1999/xlink">
    <!-- Generator: Sketch 43.2 (39069) - http://www.bohemiancoding.com/sketch -->
    <title></title>
    <desc>Created with Sketch.</desc>
    <defs></defs>
    <g id="Page-1" stroke="none" stroke-width="1" fill="none" fill-rule="evenodd">
        <g id="Liste-Copy" transform="translate(-85.000000, -590.000000)" fill="#FFFFFF">
            <path d="M101.697126,590.092991 C101.837646,590.192182 101.928571,590.3575 101.928571,590.531084 L101.928571,602.169477 C101.928571,602.384391 101.796317,602.582772 101.597935,602.657166 L96.3077567,604.773237 C96.1755022,604.831098 96.0432478,604.831098 95.9109933,604.773237 L90.8191964,602.739825 L85.7273996,604.773237 C85.6612723,604.806301 85.5951451,604.814566 85.5290179,604.814566 C85.4215611,604.814566 85.3223703,604.781503 85.2314453,604.723642 C85.0909249,604.624451 85,604.459133 85,604.285549 L85,592.647156 C85,592.432242 85.1322545,592.233861 85.3306362,592.159467 L90.6208147,590.043396 C90.7530692,589.985535 90.8853237,589.985535 91.0175781,590.043396 L96.109375,592.076808 L101.201172,590.043396 C101.36649,589.977269 101.54834,589.993801 101.697126,590.092991 Z M91.0837054,591.208888 L91.0837054,601.706587 L95.8448661,603.607744 L95.8448661,593.110046 L91.0837054,591.208888 Z M86.0580357,593.00259 L86.0580357,603.500288 L90.5546875,601.706587 L90.5546875,591.208888 L86.0580357,593.00259 Z M100.870536,601.814043 L100.870536,591.316345 L96.3738839,593.110046 L96.3738839,603.607744 L100.870536,601.814043 Z" id=""></path>
        </g>
    </g>
</svg>