<?xml version="1.0" encoding="UTF-8"?>
<svg width="17px" height="27px" viewBox="0 0 17 27" version="1.1" xmlns="http://www.w3.org/2000/svg" xmlns:xlink="http://www.w3.org/1999/xlink">
    <!-- Generator: Sketch 45.2 (43514) - http://www.bohemiancoding.com/sketch -->
    <title>marker_gold</title>
    <desc>Created with Sketch.</desc>
    <defs></defs>
    <g id="Page-1" stroke="none" stroke-width="1" fill="none" fill-rule="evenodd">
        <g id="marker_gold" fill-rule="nonzero">
            <path d="M8.5,0 C3.806,0 0,3.777 0,8.438 C0,9.743 0.299,10.98 0.833,12.083 C0.863,12.145 8.5,27 8.5,27 L16.075,12.267 C16.6845883,11.0824549 17.0017595,9.76919433 17,8.437 C17,3.777 13.195,0 8.5,0 Z" id="Shape" fill="#E0C348"></path>
            <path d="M8.51299994,2.01224842 C4.75646336,2.01224842 1.71142727,5.03496293 1.71142727,8.76359753 C1.70996029,9.77367789 1.93764944,10.7709309 2.37735452,11.6802845 C2.40153624,11.7305081 8.51299994,23.6167516 8.51299994,23.6167516 L14.5742401,11.828165 C15.0620747,10.8803726 15.3159264,9.82956718 15.3145726,8.76359753 C15.3145726,5.03403286 12.2695365,2.01224842 8.51299994,2.01224842 Z" id="Shape" fill="#000000"></path>
        </g>
    </g>
</svg>