<?xml version="1.0" encoding="UTF-8"?>
<svg width="26px" height="26px" viewBox="0 0 26 26" version="1.1" xmlns="http://www.w3.org/2000/svg" xmlns:xlink="http://www.w3.org/1999/xlink">
    <!-- Generator: Sketch 43.2 (39069) - http://www.bohemiancoding.com/sketch -->
    <title></title>
    <desc>Created with Sketch.</desc>
    <defs></defs>
    <g id="Page-1" stroke="none" stroke-width="1" fill="none" fill-rule="evenodd">
        <g id="Home" transform="translate(-175.000000, -516.000000)" fill="#FFFFFF">
            <path d="M193.000021,526.999987 C193.000021,523.140607 189.859393,519.999979 186.000013,519.999979 C182.140634,519.999979 179.000005,523.140607 179.000005,526.999987 C179.000005,530.859366 182.140634,533.999995 186.000013,533.999995 C189.859393,533.999995 193.000021,530.859366 193.000021,526.999987 Z M201.000031,540.000002 C201.000031,541.093754 200.09378,542.000005 199.000029,542.000005 C198.468778,542.000005 197.953152,541.781255 197.593777,541.406254 L192.234396,536.062498 C190.406268,537.328124 188.218766,538 186.000013,538 C179.921881,538 175,533.078119 175,526.999987 C175,520.921855 179.921881,515.999974 186.000013,515.999974 C192.078145,515.999974 197.000026,520.921855 197.000026,526.999987 C197.000026,529.21874 196.32815,531.406242 195.062524,533.234369 L200.421905,538.593751 C200.781281,538.953126 201.000031,539.468752 201.000031,540.000002 Z" id=""></path>
        </g>
    </g>
</svg>