<svg width="216" height="91" viewBox="0 0 216 91" xmlns="http://www.w3.org/2000/svg"><title>Wohin St.Gallen?</title><path d="M67.362 36l-4.848-13.488L57.474 36H55.65L44.61 5.232c-.224-.704-.688-1.376-1.392-2.016-.704-.64-1.616-.96-2.736-.96V0H73.17v2.256c-1.344.128-2.288.4-2.832.816-.544.416-.992 1.136-1.344 2.16l-3.264 8.64 4.128 10.896 7.68-19.536c.576-1.76-.176-2.752-2.256-2.976V0h9.6v2.256c-1.344.128-2.288.4-2.832.816-.544.416-.992 1.136-1.344 2.16L69.186 36h-1.824zM50.802 5.28l7.344 19.488 2.688-6.864-4.512-12.672c-.256-.672-.68-1.32-1.272-1.944-.592-.624-1.368-.952-2.328-.984-1.152-.032-1.864.224-2.136.768s-.2 1.28.216 2.208zm15.024-.048c.064-.352.128-.728.192-1.128.064-.4-.072-.784-.408-1.152-.336-.368-.856-.568-1.56-.6-.96-.032-1.552.232-1.776.792-.224.56-.144 1.272.24 2.136l1.584 4.272 1.728-4.32zM103.342 24c0 3.616-.936 6.616-2.808 9-1.872 2.384-4.456 3.576-7.752 3.576-3.296 0-5.88-1.192-7.752-3.576-1.872-2.384-2.808-5.384-2.808-9 0-3.616.936-6.624 2.808-9.024 1.872-2.4 4.456-3.6 7.752-3.6 3.296 0 5.88 1.2 7.752 3.6 1.872 2.4 2.808 5.408 2.808 9.024zm-6.048 0c0-3.328-.344-5.816-1.032-7.464-.688-1.648-1.848-2.472-3.48-2.472s-2.792.824-3.48 2.472c-.688 1.648-1.032 4.136-1.032 7.464 0 3.328.344 5.808 1.032 7.44.688 1.632 1.848 2.448 3.48 2.448s2.792-.816 3.48-2.448c.688-1.632 1.032-4.112 1.032-7.44zm31.42 6.336c0 .992.272 1.792.816 2.4.544.608 1.344.944 2.4 1.008V36h-24.288v-2.256c1.056-.064 1.856-.4 2.4-1.008.544-.608.816-1.408.816-2.4V5.232c-.096-1.76-1.168-2.752-3.216-2.976V0h8.928v13.728c1.344-1.568 3.04-2.352 5.088-2.352 2.816 0 4.696.664 5.64 1.992.944 1.328 1.416 3.448 1.416 6.36v10.608zm-5.712-10.416c0-1.952-.28-3.272-.84-3.96-.56-.688-1.32-1.032-2.28-1.032-2.208 0-3.312 1.744-3.312 5.232v10.176c0 .992.272 1.808.816 2.448.544.64 1.344.96 2.4.96 1.056 0 1.856-.32 2.4-.96.544-.64.816-1.456.816-2.448V19.92zm18.076-12.768c-.992 0-1.832-.344-2.52-1.032-.688-.688-1.032-1.528-1.032-2.52s.344-1.84 1.032-2.544C139.246.352 140.086 0 141.078 0s1.84.352 2.544 1.056a3.468 3.468 0 0 1 1.056 2.544c0 .992-.352 1.832-1.056 2.52-.704.688-1.552 1.032-2.544 1.032zm3.312 23.184c0 .992.272 1.792.816 2.4.544.608 1.344.944 2.4 1.008V36h-12.144v-2.256c1.056-.064 1.856-.4 2.4-1.008.544-.608.816-1.408.816-2.4V17.664c0-.992-.272-1.792-.816-2.4-.544-.608-1.344-.944-2.4-1.008V12h8.928v18.336zm27.916 0c0 .992.272 1.792.816 2.4.544.608 1.344.944 2.4 1.008V36h-24.288v-2.256c1.056-.064 1.856-.4 2.4-1.008.544-.608.816-1.408.816-2.4V17.28c0-.864-.296-1.568-.888-2.112-.592-.544-1.368-.848-2.328-.912V12h8.112l.336 2.4c.576-.896 1.36-1.624 2.352-2.184a6.434 6.434 0 0 1 3.216-.84c2.816 0 4.696.664 5.64 1.992.944 1.328 1.416 3.448 1.416 6.36v10.608zm-5.712-10.416c0-1.952-.28-3.272-.84-3.96-.56-.688-1.32-1.032-2.28-1.032-2.208 0-3.312 1.744-3.312 5.232v10.176c0 .992.272 1.808.816 2.448.544.64 1.344.96 2.4.96 1.056 0 1.856-.32 2.4-.96.544-.64.816-1.456.816-2.448V19.92zM20.224 54H18.16c0 .896-.336 1.344-1.008 1.344-.16 0-.944-.328-2.352-.984a10.337 10.337 0 0 0-4.416-.984c-2.72 0-4.984.816-6.792 2.448C1.784 57.456.88 59.568.88 62.16c0 2.848 1.328 5.36 3.984 7.536l8.16 6.672c2.112 1.728 3.168 3.696 3.168 5.904 0 1.408-.472 2.592-1.416 3.552s-2.168 1.44-3.672 1.44a8.745 8.745 0 0 1-1.752-.192c-.624-.128-1.32-.368-2.088-.72a8.331 8.331 0 0 1-2.112-1.392c-.64-.576-1.208-1.352-1.704-2.328-.496-.976-.808-2.104-.936-3.384H.016V90h2.16l.096-.24c.064-.16.144-.336.24-.528s.256-.36.48-.504c.224-.144.496-.216.816-.216.352 0 .872.168 1.56.504.688.336 1.592.68 2.712 1.032s2.384.528 3.792.528c3.2 0 5.76-.912 7.68-2.736 1.92-1.824 2.88-4.144 2.88-6.96 0-3.36-1.536-6.272-4.608-8.736l-9.312-7.392c-1.504-1.216-2.256-2.512-2.256-3.888 0-1.216.544-2.256 1.632-3.12 1.088-.864 2.384-1.296 3.888-1.296 1.824 0 3.344.624 4.56 1.872 1.216 1.248 1.824 2.544 1.824 3.888h2.064V54zm14.208 30.096v-15.12h2.304V66h-2.304V54h-3.264c0 3.52-.816 5.872-2.448 7.056V66h-2.4v2.976h2.4v15.84c0 .096-.008.248-.024.456a1.606 1.606 0 0 1-.12.528 12.51 12.51 0 0 1-.24.504c-.096.192-.232.36-.408.504-.176.144-.368.28-.576.408-.208.128-.472.24-.792.336-.32.096-.672.16-1.056.192V90h12.144v-2.256a5.652 5.652 0 0 1-1.368-.24c-.4-.128-.712-.296-.936-.504a4.604 4.604 0 0 1-.552-.6 1.606 1.606 0 0 1-.288-.696c-.048-.272-.08-.48-.096-.624a3.408 3.408 0 0 1 0-.576c.016-.24.024-.376.024-.408zm7.584 3.312c0-.896.304-1.648.912-2.256.608-.608 1.36-.912 2.256-.912.896 0 1.648.304 2.256.912.608.608.912 1.36.912 2.256 0 .896-.304 1.648-.912 2.256-.608.608-1.36.912-2.256.912-.896 0-1.648-.304-2.256-.912-.608-.608-.912-1.36-.912-2.256zm28.848-12.912v2.256c2.336.224 3.568 1.36 3.696 3.408v1.92c-.064 1.664-.72 3.008-1.968 4.032s-2.608 1.536-4.08 1.536c-2.784 0-4.936-1.472-6.456-4.416-1.52-2.944-2.28-6.672-2.28-11.184s.76-8.248 2.28-11.208c1.52-2.96 3.672-4.44 6.456-4.44 1.6 0 3.2.672 4.8 2.016 1.6 1.344 2.4 3.232 2.4 5.664h2.496V54h-2.112c-.32.896-.832 1.2-1.536.912-2.496-.992-4.752-1.488-6.768-1.488-4.32 0-7.84 1.8-10.56 5.4-2.72 3.6-4.08 8.008-4.08 13.224 0 5.088 1.424 9.448 4.272 13.08 2.848 3.632 6.288 5.448 10.32 5.448 1.728 0 3.128-.168 4.2-.504 1.072-.336 2.184-.872 3.336-1.608.64-.416 1.128-.648 1.464-.696.336-.048.712.12 1.128.504L79.12 90h1.632v-9.984c0-.224.008-.416.024-.576.016-.16.056-.368.12-.624a2.11 2.11 0 0 1 .312-.696c.144-.208.328-.408.552-.6.224-.192.528-.36.912-.504a4.54 4.54 0 0 1 1.296-.264v-2.256H70.864zm35.136 9.6c0 2.048 1.072 3.264 3.216 3.648V90h-7.488l-.672-2.4c-1.248 1.984-3.216 2.976-5.904 2.976-2.592 0-4.624-.752-6.096-2.256-1.472-1.504-2.208-3.312-2.208-5.424 0-2.816 1.104-5.088 3.312-6.816-.928-.864-1.392-2.112-1.392-3.744 0-1.984.736-3.64 2.208-4.968 1.472-1.328 3.536-1.992 6.192-1.992 2.688 0 4.832.68 6.432 2.04 1.6 1.36 2.4 3.144 2.4 5.352v11.328zm-5.712-7.44v-3.84c0-2.976-1.232-4.464-3.696-4.464-1.056 0-1.984.232-2.784.696-.8.464-1.296 1.112-1.488 1.944 1.056.096 1.872.528 2.448 1.296.576.768.752 1.568.528 2.4 2.208.096 3.872.752 4.992 1.968zM96.4 86.88c1.088 0 2.008-.392 2.76-1.176.752-.784 1.128-1.864 1.128-3.24 0-1.376-.384-2.424-1.152-3.144-.768-.72-1.728-1.08-2.88-1.08-1.088 0-2.016.344-2.784 1.032-.768.688-1.152 1.736-1.152 3.144 0 1.504.416 2.624 1.248 3.36.832.736 1.776 1.104 2.832 1.104zm24.24-2.784V54h-8.928v2.256c2.144.224 3.216 1.216 3.216 2.976v24.864c0 2.336-1.072 3.552-3.216 3.648V90h12.144v-2.256c-2.144-.096-3.216-1.312-3.216-3.648zm14.832 0V54h-8.928v2.256c2.144.224 3.216 1.216 3.216 2.976v24.864c0 2.336-1.072 3.552-3.216 3.648V90h12.144v-2.256c-2.144-.096-3.216-1.312-3.216-3.648zm27.36 1.392c-1.056 1.568-2.456 2.808-4.2 3.72a11.797 11.797 0 0 1-5.544 1.368c-3.296 0-5.992-1.256-8.088-3.768-2.096-2.512-3.144-5.592-3.144-9.24 0-3.488.992-6.392 2.976-8.712 1.984-2.32 4.672-3.48 8.064-3.48 3.616 0 6.328 1.344 8.136 4.032 1.808 2.688 2.52 6.144 2.136 10.368h-15.264c.128 2.464.744 4.328 1.848 5.592 1.104 1.264 2.504 1.896 4.2 1.896 1.248 0 2.472-.344 3.672-1.032a7.301 7.301 0 0 0 2.808-2.856l2.4 2.112zm-10.128-17.28c-1.408 0-2.544.728-3.408 2.184-.864 1.456-1.328 3.592-1.392 6.408h9.552c-.032-2.752-.472-4.872-1.32-6.36-.848-1.488-1.992-2.232-3.432-2.232zm34.368 16.128c0 .992.272 1.792.816 2.4.544.608 1.344.944 2.4 1.008V90H166v-2.256c1.056-.064 1.856-.4 2.4-1.008.544-.608.816-1.408.816-2.4V71.28c0-.864-.296-1.568-.888-2.112-.592-.544-1.368-.848-2.328-.912V66h8.112l.336 2.4c.576-.896 1.36-1.624 2.352-2.184a6.434 6.434 0 0 1 3.216-.84c2.816 0 4.696.664 5.64 1.992.944 1.328 1.416 3.448 1.416 6.36v10.608zM181.36 73.92c0-1.952-.28-3.272-.84-3.96-.56-.688-1.32-1.032-2.28-1.032-2.208 0-3.312 1.744-3.312 5.232v10.176c0 .992.272 1.808.816 2.448.544.64 1.344.96 2.4.96 1.056 0 1.856-.32 2.4-.96.544-.64.816-1.456.816-2.448V73.92zm34.464-9.552c0 3.136-1.12 5.832-3.36 8.088-2.24 2.256-4.896 3.384-7.968 3.384v4.656h-3.984v-8.592c2.752.224 4.984-.424 6.696-1.944 1.712-1.52 2.568-3.512 2.568-5.976 0-1.92-.528-3.656-1.584-5.208s-2.736-2.328-5.04-2.328c-2.784 0-4.512 1.248-5.184 3.744.864 0 1.6.304 2.208.912.608.608.912 1.344.912 2.208 0 .864-.304 1.6-.912 2.208-.608.608-1.36.912-2.256.912-1.024 0-1.848-.384-2.472-1.152-.624-.768-.936-1.808-.936-3.12 0-2.272.888-4.296 2.664-6.072 1.776-1.776 4.248-2.664 7.416-2.664 3.456 0 6.192 1.088 8.208 3.264 2.016 2.176 3.024 4.736 3.024 7.68zm-13.2 19.728c.896 0 1.648.304 2.256.912.608.608.912 1.36.912 2.256 0 .896-.304 1.648-.912 2.256-.608.608-1.36.912-2.256.912-.896 0-1.648-.304-2.256-.912-.608-.608-.912-1.36-.912-2.256 0-.896.304-1.648.912-2.256.608-.608 1.36-.912 2.256-.912z" fill="#FFF" fill-rule="evenodd"/></svg>